<svg width="101" height="101" viewBox="0 0 101 101" fill="none" xmlns="http://www.w3.org/2000/svg">
<path d="M78.7393 52.4219L56.5104 44.2078L48.3222 21.9617C47.8373 20.6444 46.96 19.5075 45.8087 18.7045C44.6574 17.9014 43.2874 17.4708 41.8837 17.4708C40.48 17.4708 39.11 17.9014 37.9587 18.7045C36.8074 19.5075 35.9301 20.6444 35.4452 21.9617L27.2052 44.2078L4.95911 52.396C3.6418 52.8809 2.50492 53.7582 1.70186 54.9096C0.898812 56.0609 0.468239 57.4308 0.468239 58.8346C0.468239 60.2383 0.898812 61.6082 1.70186 62.7596C2.50492 63.9109 3.6418 64.7882 4.95911 65.2731L27.2052 73.513L35.3934 95.7591C35.8783 97.0764 36.7556 98.2133 37.907 99.0164C39.0583 99.8194 40.4282 100.25 41.832 100.25C43.2357 100.25 44.6056 99.8194 45.757 99.0164C46.9083 98.2133 47.7856 97.0764 48.2705 95.7591L56.5104 73.513L78.7565 65.3248C80.0738 64.8399 81.2107 63.9626 82.0138 62.8113C82.8168 61.66 83.2474 60.29 83.2474 58.8863C83.2474 57.4826 82.8168 56.1126 82.0138 54.9613C81.2107 53.8099 80.0738 52.9326 78.7565 52.4478L78.7393 52.4219ZM52.6318 67.5744C52.1638 67.7469 51.7388 68.0188 51.3862 68.3715C51.0335 68.7242 50.7615 69.1492 50.5891 69.6172L41.8578 93.2725L33.1438 69.6344C32.9716 69.1615 32.698 68.732 32.3421 68.3761C31.9862 68.0203 31.5568 67.7466 31.0838 67.5744L7.44575 58.8604L31.0838 50.1464C31.5568 49.9742 31.9862 49.7006 32.3421 49.3447C32.698 48.9888 32.9716 48.5594 33.1438 48.0864L41.8578 24.4483L50.5718 48.0864C50.7443 48.5544 51.0162 48.9794 51.3689 49.3321C51.7216 49.6848 52.1466 49.9567 52.6146 50.1292L76.2699 58.8604L52.6318 67.5744ZM55.6485 14.0407C55.6485 13.1263 56.0117 12.2494 56.6583 11.6028C57.3049 10.9563 58.1818 10.593 59.0962 10.593H65.9915V3.69767C65.9915 2.78329 66.3548 1.90636 67.0013 1.2598C67.6479 0.613236 68.5248 0.25 69.4392 0.25C70.3536 0.25 71.2305 0.613236 71.8771 1.2598C72.5236 1.90636 72.8869 2.78329 72.8869 3.69767V10.593H79.7822C80.6966 10.593 81.5735 10.9563 82.2201 11.6028C82.8666 12.2494 83.2299 13.1263 83.2299 14.0407C83.2299 14.9551 82.8666 15.832 82.2201 16.4786C81.5735 17.1251 80.6966 17.4884 79.7822 17.4884H72.8869V24.3837C72.8869 25.2981 72.5236 26.175 71.8771 26.8216C71.2305 27.4681 70.3536 27.8314 69.4392 27.8314C68.5248 27.8314 67.6479 27.4681 67.0013 26.8216C66.3548 26.175 65.9915 25.2981 65.9915 24.3837V17.4884H59.0962C58.1818 17.4884 57.3049 17.1251 56.6583 16.4786C56.0117 15.832 55.6485 14.9551 55.6485 14.0407ZM100.468 34.7267C100.468 35.6411 100.105 36.518 99.4584 37.1646C98.8119 37.8112 97.935 38.1744 97.0206 38.1744H93.5729V41.6221C93.5729 42.5364 93.2097 43.4134 92.5631 44.0599C91.9165 44.7065 91.0396 45.0697 90.1252 45.0697C89.2108 45.0697 88.3339 44.7065 87.6874 44.0599C87.0408 43.4134 86.6776 42.5364 86.6776 41.6221V38.1744H83.2299C82.3155 38.1744 81.4386 37.8112 80.792 37.1646C80.1454 36.518 79.7822 35.6411 79.7822 34.7267C79.7822 33.8123 80.1454 32.9354 80.792 32.2888C81.4386 31.6423 82.3155 31.279 83.2299 31.279H86.6776V27.8314C86.6776 26.917 87.0408 26.0401 87.6874 25.3935C88.3339 24.7469 89.2108 24.3837 90.1252 24.3837C91.0396 24.3837 91.9165 24.7469 92.5631 25.3935C93.2097 26.0401 93.5729 26.917 93.5729 27.8314V31.279H97.0206C97.935 31.279 98.8119 31.6423 99.4584 32.2888C100.105 32.9354 100.468 33.8123 100.468 34.7267Z" fill="#616161"/>
</svg>
